# xmcd
#
# Track frame offsets:
#	150
#	3516
#	10637
#	28354
#	43427
#	60191
#	74179
#	85806
#	104151
#	121798
#	149288
#	165733
#	177269
#	189479
#	213678
#	227781
#
# Disc length: 3349 seconds
#
# Revision: 3
# Processed by: cddbd v1.5.2PL0 Copyright (c) Steve Scherf et al.
# Submitted via: audiograbber 1.83.01
#
DISCID=e80d1310
DTITLE=Del McCoury and Friends - Moneyland
DYEAR=2008
DGENRE=Bluegrass
TTITLE0=Franklin D. Roosevelt - Fireside Chat, Part 1
TTITLE1=Bernard "Slim" Smith - Breadline Blues 1932
TTITLE2=The Del McCoury Band - Moneyland
TTITLE3=Marty Stuart/Merle Haggard - Farmer's Blues
TTITLE4=Merle Haggard - What Happened?
TTITLE5=Mac Wiseman - Medley: I Wonder How the Old Folks Are At Home - I'd Rath
TTITLE5=er Live by the Side of the Road
TTITLE6=The Del McCoury Band - When I'm 64
TTITLE7=The Del McCoury Band - 40 Acres and a Fool
TTITLE8=Chris Knight - A Train Not Running
TTITLE9=Patty Loveless - You'll Never Leave Harlan Alive
TTITLE10=Emmylou Harris with Rodney Crowell - Mama's Hungry Eyes
TTITLE11=Dan Tyminski - Carry Me Across the Mountain
TTITLE12=Merle Haggard - If We Make It Through December
TTITLE13=Bruce Hornsby and The Fairfield Four - The Way It Is
TTITLE14=Del McCoury, Mac Wiseman, Tim O'Brien, and Gillian Welch and David Rawli
TTITLE14=ngs - Breadline Blues 2008
TTITLE15=Franklin D. Roosevelt - Fireside Chat, Part 2
EXTD=YEAR: 2008
EXTT0=
EXTT1=
EXTT2=
EXTT3=
EXTT4=
EXTT5=
EXTT6=
EXTT7=
EXTT8=
EXTT9=
EXTT10=
EXTT11=
EXTT12=
EXTT13=
EXTT14=
EXTT15=
PLAYORDER=
